<?xml version="1.0" standalone="no"?><!DOCTYPE svg PUBLIC "-//W3C//DTD SVG 1.1//EN" "http://www.w3.org/Graphics/SVG/1.1/DTD/svg11.dtd"><svg t="1648566357943" class="icon" viewBox="0 0 1024 1024" version="1.1" xmlns="http://www.w3.org/2000/svg" p-id="2634" xmlns:xlink="http://www.w3.org/1999/xlink" width="200" height="200"><defs><style type="text/css">@font-face { font-family: feedback-iconfont; src: url("//at.alicdn.com/t/font_1031158_u69w8yhxdu.woff2?t=1630033759944") format("woff2"), url("//at.alicdn.com/t/font_1031158_u69w8yhxdu.woff?t=1630033759944") format("woff"), url("//at.alicdn.com/t/font_1031158_u69w8yhxdu.ttf?t=1630033759944") format("truetype"); }
</style></defs><path d="M641.28512 349.4656c-32.13824 122.79808-64.7936 166.8608-128.16384 166.8608-57.53856 0-90.24-50.88768-128.16896-166.8608-17.32608-52.992-37.8624-176.6144-20.50048-217.63584 30.1568-71.26016 105.58464-73.62048 148.66944-73.62048 45.28128 0 125.568 2.3552 144.4096 67.02592 11.8784 40.73984-3.05152 173.79328-16.24576 224.2304z" fill="#C01E20" p-id="2635"></path><path d="M711.40864 586.65984c-126.71488 7.38816-178.7136-10.0608-198.2976-70.32832-17.77664-54.71744 20.52096-101.54496 119.09632-173.45024 45.03552-32.85504 156.26752-90.58304 200.64256-86.75328 77.09696 6.66112 102.65088 77.66528 115.95776 118.64064 13.99808 43.07456 36.56704 120.15616-19.11808 158.06464-35.07712 23.86432-166.23104 50.78528-218.28096 53.82656z" fill="#C01E20" p-id="2636"></path><path d="M711.40864 586.65984c-126.71488 7.38816-178.7136-10.0608-198.2976-70.32832-17.77664-54.71744 20.52096-101.54496 119.09632-173.45024 45.03552-32.85504 156.26752-90.58304 200.64256-86.75328 77.09696 6.66112 102.65088 77.66528 115.95776 118.64064 13.99808 43.07456 36.56704 120.15616-19.11808 158.06464-35.07712 23.86432-166.23104 50.78528-218.28096 53.82656z" fill="#C01E20" p-id="2637"></path><path d="M507.49952 726.66112c-46.18752-118.23104-45.6704-173.07136 5.61152-210.3296 46.5408-33.81248 102.91712-11.87328 201.76896 59.66336 45.15328 32.68608 134.43584 120.63744 144.49664 164.02432 17.50528 75.37152-42.13248 121.61536-76.98432 146.93888-36.64384 26.61888-102.98368 71.90528-156.2368 30.65856-33.55648-25.97888-99.6864-142.39744-118.656-190.95552z" fill="#C01E20" p-id="2638"></path><path d="M311.3472 575.98976c98.17088-80.4608 150.49216-96.91648 201.76384-59.66336 46.54592 33.81248 43.08992 94.21312 5.61152 210.3296-17.13152 53.05344-73.18528 165.13536-111.33952 188.11904-66.2784 39.936-128.6912-2.49856-163.54304-27.8272-36.63872-26.61888-100.20352-75.71456-77.44512-139.1104 14.34624-39.936 104.63232-138.79808 144.95232-171.84768z" fill="#C01E20" p-id="2639"></path><path d="M394.03008 342.88128c106.8544 68.5056 138.67008 113.18272 119.0912 173.45024-17.78176 54.72256-76.288 70.09792-198.30272 70.32832-55.75168 0.10752-179.67104-18.57024-213.31968-47.74912-58.45504-50.70336-37.38624-123.17184-24.07424-164.1472 13.99296-43.06944 41.04704-118.69184 108.36992-116.6336 42.41408 1.29536 164.34688 56.61184 208.23552 84.75136z" fill="#C01E20" p-id="2640"></path><path d="M513.12128 516.33152m-32.93184 0a32.93184 32.93184 0 1 0 65.86368 0 32.93184 32.93184 0 1 0-65.86368 0Z" fill="#E8DE31" p-id="2641"></path><path d="M449.09568 390.23104m-13.75744 0a13.75744 13.75744 0 1 0 27.51488 0 13.75744 13.75744 0 1 0-27.51488 0Z" fill="#E8DE31" p-id="2642"></path><path d="M511.44704 513.664l-5.0944-0.50688c8.08448-81.2288-57.86624-120.32-58.53184-120.70912l2.56-4.43392c0.6912 0.39936 69.48352 41.05728 61.06624 125.64992z" fill="#E8DE31" p-id="2643"></path><path d="M503.9616 204.52864m-30.99136 0a30.99136 30.99136 0 1 0 61.98272 0 30.99136 30.99136 0 1 0-61.98272 0Z" fill="#E8DE31" p-id="2644"></path><path d="M515.49184 517.2992l-4.74112-1.94048c70.95296-173.26592-8.17664-308.16768-8.98048-309.51424l4.38272-2.64192c0.82432 1.36704 81.30048 138.36288 9.33888 314.09664z" fill="#E8DE31" p-id="2645"></path><path d="M613.25824 416.47616m-13.75744 0a13.75744 13.75744 0 1 0 27.51488 0 13.75744 13.75744 0 1 0-27.51488 0Z" fill="#E8DE31" p-id="2646"></path><path d="M515.13344 513.91488l-1.09056-5.00224c79.86176-17.43872 96.54784-92.21632 96.71168-92.96896l5.01248 1.05984c-0.16896 0.78336-17.57696 78.77632-100.6336 96.91136z" fill="#E8DE31" p-id="2647"></path><path d="M806.83008 411.264m-30.99136 0a30.99136 30.99136 0 1 0 61.98272 0 30.99136 30.99136 0 1 0-61.98272 0Z" fill="#E8DE31" p-id="2648"></path><path d="M544.01024 520.04864a417.1264 417.1264 0 0 1-31.0784-1.16736l0.37888-5.10976c186.74688 13.93152 290.55488-103.00928 291.584-104.192l3.87072 3.3536c-0.98304 1.14688-94.976 107.11552-264.7552 107.11552z" fill="#E8DE31" p-id="2649"></path><path d="M639.03744 580.71552m-13.75744 0a13.75744 13.75744 0 1 0 27.51488 0 13.75744 13.75744 0 1 0-27.51488 0Z" fill="#E8DE31" p-id="2650"></path><path d="M632.32 583.51616c-20.43392 0-80.83968-5.41696-116.2752-66.01216l4.41856-2.5856c41.20064 70.46144 117.54496 63.34464 118.2976 63.25248l0.5376 5.08928c-0.13312 0.01536-2.6624 0.256-6.97856 0.256z" fill="#E8DE31" p-id="2651"></path><path d="M703.80544 763.20256m-30.99136 0a30.99136 30.99136 0 1 0 61.98272 0 30.99136 30.99136 0 1 0-61.98272 0Z" fill="#E8DE31" p-id="2652"></path><path d="M702.81216 765.55776c-1.46944-0.61952-147.0976-64.14336-192.17408-248.62208l4.97664-1.21344c44.4416 181.888 187.74528 244.5056 189.19424 245.12l-1.9968 4.71552z" fill="#E8DE31" p-id="2653"></path><path d="M490.79808 655.9744m-13.75744 0a13.75744 13.75744 0 1 0 27.51488 0 13.75744 13.75744 0 1 0-27.51488 0Z" fill="#E8DE31" p-id="2654"></path><path d="M488.45824 657.01376c-0.32768-0.73728-32.08704-74.05568 24.448-137.54368l3.82464 3.39968c-54.36416 61.05088-23.91552 131.3536-23.59808 132.05504l-4.67456 2.08896z" fill="#E8DE31" p-id="2655"></path><path d="M337.25952 773.9648m-30.99136 0a30.99136 30.99136 0 1 0 61.98272 0 30.99136 30.99136 0 1 0-61.98272 0Z" fill="#E8DE31" p-id="2656"></path><path d="M339.80928 774.17984l-5.09952-0.44032c0.13824-1.5872 15.54944-159.71328 177.06496-259.59424l2.69312 4.352c-159.35488 98.54464-174.52032 254.12096-174.65856 255.68256z" fill="#E8DE31" p-id="2657"></path><path d="M373.41184 538.25536m-13.75744 0a13.75744 13.75744 0 1 0 27.51488 0 13.75744 13.75744 0 1 0-27.51488 0Z" fill="#E8DE31" p-id="2658"></path><path d="M375.12192 540.14976l-3.42528-3.79904c0.59904-0.53248 60.53376-53.38624 138.37312-19.25632l-2.05312 4.68992c-74.7776-32.78848-132.32128 17.84832-132.89472 18.36544z" fill="#E8DE31" p-id="2659"></path><path d="M213.74976 428.68736m-30.99136 0a30.99136 30.99136 0 1 0 61.98272 0 30.99136 30.99136 0 1 0-61.98272 0Z" fill="#E8DE31" p-id="2660"></path><path d="M511.46752 518.28736c-142.9504-121.10848-295.60832-87.4496-297.13408-87.10144l-1.16224-4.98688c1.55136-0.3584 156.71296-34.57024 301.60384 88.18176l-3.30752 3.90656z" fill="#E8DE31" p-id="2661"></path></svg>